<svg width="92" height="96" viewBox="0 0 92 96" fill="none" xmlns="http://www.w3.org/2000/svg">
<path opacity="0.6" d="M91.3953 13C91.3953 58.8396 53.1181 96 5.90079 96C-41.3165 96 -79.5938 58.8396 -79.5938 13C-79.5938 -32.8396 -41.3165 -70 5.90079 -70C53.1181 -70 91.3953 -32.8396 91.3953 13ZM-63.2636 13C-63.2636 50.0839 -32.2977 80.1464 5.90079 80.1464C44.0992 80.1464 75.0652 50.0839 75.0652 13C75.0652 -24.0839 44.0992 -54.1464 5.90079 -54.1464C-32.2977 -54.1464 -63.2636 -24.0839 -63.2636 13Z" fill="#D9D9D9" fill-opacity="0.13"/>
<path opacity="0.6" d="M60.4936 14.5C60.4936 43.4949 36.2821 67 6.41576 67C-23.4506 67 -47.6621 43.4949 -47.6621 14.5C-47.6621 -14.4949 -23.4506 -38 6.41576 -38C36.2821 -38 60.4936 -14.4949 60.4936 14.5ZM-28.5837 14.5C-28.5837 33.2656 -12.9139 48.4782 6.41576 48.4782C25.7454 48.4782 41.4152 33.2656 41.4152 14.5C41.4152 -4.26565 25.7454 -19.4782 6.41576 -19.4782C-12.9139 -19.4782 -28.5837 -4.26565 -28.5837 14.5Z" fill="#D9D9D9" fill-opacity="0.13"/>
</svg>
