<svg width="122" height="36" viewBox="0 0 122 36" fill="none" xmlns="http://www.w3.org/2000/svg">
<path d="M17.49 10.4922L15.6774 22.3319C15.6289 22.6169 15.4902 22.844 15.2613 23.0177C15.0324 23.1915 14.7711 23.2772 14.4752 23.2772H11.4257C11.1182 23.2772 10.85 23.1915 10.6212 23.0177C10.3923 22.844 10.2605 22.6169 10.2235 22.3319L9.09526 14.6975C9.05827 14.4009 9.02822 14.1043 9.00279 13.8078C8.97735 13.5112 8.9473 13.2146 8.91031 12.9181H8.57738C8.56582 13.2146 8.54271 13.5135 8.51265 13.817C8.48259 14.1206 8.44792 14.4195 8.41092 14.716L7.30118 22.3319C7.26419 22.6169 7.12778 22.844 6.89428 23.0177C6.66077 23.1915 6.39489 23.2772 6.09896 23.2772H3.03098C2.72349 23.2772 2.45531 23.1915 2.22642 23.0177C1.99754 22.844 1.86575 22.6169 1.82876 22.3319L0 10.4922H3.45639L4.41816 18.8124C4.44359 19.109 4.4644 19.4241 4.4829 19.7577C4.50139 20.0914 4.51758 20.4436 4.52914 20.8143H4.84356C4.89212 20.5061 4.94529 20.1725 5.00078 19.8134C5.05626 19.4542 5.1025 19.1159 5.13949 18.7939L6.24924 11.5302C6.28623 11.222 6.4157 10.9718 6.63765 10.7795C6.8596 10.5872 7.12547 10.4922 7.43296 10.4922H10.0594C10.3668 10.4922 10.6304 10.5872 10.8454 10.7795C11.0604 10.9718 11.1945 11.222 11.2431 11.5302L12.3713 18.831C12.4083 19.153 12.4522 19.4867 12.5008 19.8319C12.5493 20.1771 12.6002 20.5061 12.6488 20.8143H12.9817C12.9817 20.4922 12.9979 20.1609 13.0279 19.8134C13.058 19.4681 13.0811 19.1461 13.0927 18.8495L14.0359 10.4922H17.4923H17.49Z" fill="#006363"/>
<path d="M23.1463 13.8105C24.3531 13.8105 25.3219 13.9681 26.0501 14.2832C26.7761 14.5983 27.3009 15.1104 27.6223 15.8217C27.9436 16.533 28.1032 17.4853 28.1032 18.6855C28.1032 19.8856 27.9436 20.8124 27.6223 21.5122C27.3009 22.2096 26.7784 22.717 26.0501 23.0321C25.3219 23.3472 24.3555 23.5047 23.1463 23.5047C21.9371 23.5047 20.9707 23.3472 20.2425 23.0321C19.5142 22.717 18.9917 22.2119 18.6703 21.5122C18.349 20.8147 18.1895 19.8717 18.1895 18.6855C18.1895 17.4992 18.349 16.533 18.6703 15.8217C18.9917 15.1104 19.5142 14.5983 20.2425 14.2832C20.9707 13.9681 21.9371 13.8105 23.1463 13.8105ZM23.1463 16.1646C22.7648 16.1646 22.4712 16.2318 22.2678 16.3685C22.0643 16.5052 21.9187 16.7508 21.8331 17.1099C21.7476 17.469 21.7036 17.9927 21.7036 18.6855C21.7036 19.3782 21.7476 19.8833 21.8331 20.2425C21.9187 20.6016 22.0643 20.8449 22.2678 20.9746C22.4712 21.1044 22.7648 21.1692 23.1463 21.1692C23.5278 21.1692 23.8237 21.1044 24.0341 20.9746C24.2445 20.8449 24.3878 20.6016 24.4687 20.2425C24.5497 19.8833 24.589 19.3666 24.589 18.6855C24.589 18.0043 24.5497 17.469 24.4687 17.1099C24.3878 16.7508 24.2445 16.5052 24.0341 16.3685C23.8237 16.2318 23.5278 16.1646 23.1463 16.1646Z" fill="#006363"/>
<path d="M32.2608 14.0685L32.6677 15.922L33.0006 16.163V23.2784H29.6367V14.0708H32.2631L32.2608 14.0685ZM36.7344 13.809L36.4385 16.9021H35.5507C35.1808 16.9021 34.7739 16.9392 34.33 17.0133C33.8861 17.0875 33.3243 17.2103 32.6469 17.384L32.4434 15.549C33.0607 14.9674 33.6919 14.5342 34.3393 14.2422C34.9866 13.9526 35.6108 13.8066 36.2166 13.8066H36.7344V13.809Z" fill="#006363"/>
<path d="M41.1373 10.3066V15.4573C41.1373 15.9021 41.1096 16.3539 41.0541 16.8104C40.9986 17.2668 40.9085 17.707 40.7859 18.1264C40.8853 18.5087 40.9686 18.9165 41.0356 19.3498C41.1027 19.783 41.1373 20.1769 41.1373 20.5361V23.2794H37.7734V10.309H41.1373V10.3066ZM42.2656 17.1996V19.1644H40.1201V17.1996H42.2656ZM47.3866 14.0694L45.2411 17.1626C45.1185 17.385 44.9567 17.5889 44.7602 17.7742C44.5637 17.9596 44.4018 18.0893 44.2793 18.1635V18.2376C44.4018 18.3118 44.5637 18.4601 44.7602 18.6825C44.9567 18.9049 45.1185 19.1273 45.2411 19.3498L47.7195 23.277H44.0042L41.1212 18.1449L43.6921 14.0694H47.3889H47.3866Z" fill="#006363"/>
<path d="M57.7042 10.3066C58.8995 10.3066 59.8728 10.4248 60.6242 10.6588C61.3756 10.8928 61.9281 11.2867 62.2796 11.8358C62.631 12.385 62.8067 13.1611 62.8067 14.1621C62.8067 14.7066 62.7304 15.2001 62.5755 15.6449C62.4206 16.0898 62.1593 16.4512 61.7894 16.7293C61.4195 17.0073 60.9132 17.1834 60.2728 17.2575V17.3688C60.5063 17.3943 60.756 17.4684 61.0219 17.5912C61.2877 17.714 61.5328 17.9156 61.7617 18.1936C61.9906 18.4716 62.1524 18.8516 62.2518 19.3336L63.3061 23.2794H59.6647L58.7584 19.4448C58.6729 19.0486 58.5365 18.7867 58.3515 18.657C58.1666 18.5272 57.8961 18.4624 57.5377 18.4624C56.6499 18.4508 55.917 18.4438 55.3367 18.4438C54.7564 18.4438 54.2663 18.4369 53.8663 18.4253C53.4664 18.4137 53.0872 18.3952 52.7288 18.3697L52.7843 15.9415H57.6279C58.0718 15.9415 58.414 15.8975 58.6544 15.8118C58.8949 15.726 59.0636 15.5685 59.163 15.3391C59.2625 15.1097 59.311 14.7923 59.311 14.3845C59.311 13.9767 59.2625 13.6431 59.163 13.4206C59.0636 13.1982 58.8949 13.043 58.6544 12.9573C58.414 12.8715 58.0718 12.8275 57.6279 12.8275C56.4072 12.8275 55.376 12.8345 54.5322 12.846C53.6883 12.8576 53.1126 12.8762 52.8028 12.9016L52.5254 10.492C53.0687 10.4294 53.5796 10.3877 54.0605 10.3622C54.5414 10.3368 55.0686 10.3229 55.6419 10.3159C56.2153 10.309 56.9019 10.3066 57.7042 10.3066ZM55.9286 10.492V23.277H52.5277V10.492H55.9286Z" fill="#006363"/>
<path d="M69.1638 13.8105C70.8145 13.8105 71.9936 14.0816 72.6941 14.6261C73.397 15.1706 73.7484 15.9723 73.7484 17.0358C73.7599 17.8884 73.5264 18.5117 73.0456 18.9079C72.5647 19.3041 71.7139 19.501 70.4931 19.501H65.4646V17.8143H69.5499C69.9683 17.8143 70.2365 17.7517 70.3544 17.6289C70.4723 17.5061 70.5301 17.2837 70.5301 16.9616C70.5186 16.6025 70.4192 16.3615 70.2342 16.2387C70.0492 16.1159 69.7279 16.0534 69.2724 16.0534C68.8401 16.0418 68.5118 16.0904 68.2829 16.2017C68.054 16.3129 67.8968 16.5353 67.8113 16.8689C67.7257 17.2026 67.6818 17.7031 67.6818 18.3703C67.6818 19.0376 67.735 19.5497 67.839 19.9088C67.943 20.2679 68.1349 20.5205 68.4124 20.6688C68.6898 20.8171 69.0805 20.8912 69.5869 20.8912C69.9822 20.8912 70.5024 20.875 71.1497 20.8449C71.7971 20.8147 72.4768 20.7615 73.1935 20.6873L73.5079 22.7262C73.1126 22.9232 72.6779 23.0784 72.204 23.1896C71.73 23.3009 71.2399 23.3819 70.7336 23.4306C70.2273 23.4793 69.7233 23.5047 69.2169 23.5047C67.9847 23.5047 66.9975 23.331 66.2599 22.9857C65.5201 22.6405 64.986 22.1122 64.6601 21.4009C64.3341 20.6896 64.1699 19.7976 64.1699 18.7225C64.1699 17.5131 64.3364 16.5492 64.6693 15.8333C65.0022 15.1173 65.534 14.6006 66.2692 14.2855C67.0021 13.9704 67.9662 13.8129 69.1638 13.8129V13.8105Z" fill="#006363"/>
<path d="M77.909 14.0704L78.2234 15.6275L78.5748 15.9055V21.9644L78.4639 22.1868C78.5009 22.5691 78.5286 22.9815 78.5471 23.4194C78.5656 23.8573 78.5748 24.2813 78.5748 24.6891V26.7095H75.2109V14.0728H77.9113L77.909 14.0704ZM81.6613 13.848C82.845 13.848 83.6866 14.2743 84.186 15.127C84.6854 15.9796 84.9351 17.196 84.9351 18.7762C84.9351 20.0251 84.8033 20.9912 84.5374 21.6771C84.2715 22.3629 83.8831 22.8448 83.3722 23.1228C82.8612 23.4009 82.2231 23.5399 81.4579 23.5399C80.7805 23.5399 80.1377 23.438 79.5343 23.2341C78.9309 23.0302 78.4246 22.6942 78.0177 22.2239L78.2396 20.8337C78.561 20.9333 78.8592 21.0283 79.1367 21.121C79.4141 21.2137 79.7563 21.26 80.1632 21.26C80.4845 21.26 80.7388 21.2021 80.9307 21.0839C81.1226 20.9657 81.2613 20.7317 81.3469 20.3796C81.4324 20.0274 81.4764 19.4991 81.4764 18.7948C81.4764 18.0904 81.4324 17.5598 81.3469 17.2007C81.2613 16.8415 81.1273 16.6075 80.9492 16.4963C80.7712 16.3851 80.54 16.3295 80.2556 16.3295C79.8857 16.3295 79.5782 16.3828 79.3309 16.487C79.0835 16.5913 78.806 16.7373 78.4985 16.9226L78.0546 15.551C78.2512 15.2289 78.5355 14.9393 78.9055 14.6798C79.2754 14.4203 79.6961 14.2164 80.1724 14.0681C80.6464 13.9198 81.1434 13.8457 81.6613 13.8457V13.848Z" fill="#006363"/>
<path d="M91.1287 13.8105C92.3356 13.8105 93.3043 13.9681 94.0325 14.2832C94.7585 14.5983 95.2833 15.1104 95.6047 15.8217C95.926 16.533 96.0856 17.4853 96.0856 18.6855C96.0856 19.8856 95.926 20.8124 95.6047 21.5122C95.2833 22.2096 94.7608 22.717 94.0325 23.0321C93.3043 23.3472 92.3379 23.5047 91.1287 23.5047C89.9196 23.5047 88.9532 23.3472 88.2249 23.0321C87.4966 22.717 86.9741 22.2119 86.6528 21.5122C86.3314 20.8147 86.1719 19.8717 86.1719 18.6855C86.1719 17.4992 86.3314 16.533 86.6528 15.8217C86.9741 15.1104 87.4966 14.5983 88.2249 14.2832C88.9532 13.9681 89.9196 13.8105 91.1287 13.8105ZM91.1287 16.1646C90.7473 16.1646 90.4536 16.2318 90.2502 16.3685C90.0467 16.5052 89.9011 16.7508 89.8155 17.1099C89.73 17.469 89.6861 17.9927 89.6861 18.6855C89.6861 19.3782 89.73 19.8833 89.8155 20.2425C89.9011 20.6016 90.0467 20.8449 90.2502 20.9746C90.4536 21.1044 90.7473 21.1692 91.1287 21.1692C91.5102 21.1692 91.8061 21.1044 92.0165 20.9746C92.2269 20.8449 92.3702 20.6016 92.4512 20.2425C92.5321 19.8833 92.5714 19.3666 92.5714 18.6855C92.5714 18.0043 92.5321 17.469 92.4512 17.1099C92.3702 16.7508 92.2269 16.5052 92.0165 16.3685C91.8061 16.2318 91.5102 16.1646 91.1287 16.1646Z" fill="#006363"/>
<path d="M100.243 14.0685L100.65 15.922L100.983 16.163V23.2784H97.6191V14.0708H100.246L100.243 14.0685ZM104.717 13.809L104.421 16.9021H103.533C103.163 16.9021 102.756 16.9392 102.312 17.0133C101.869 17.0875 101.307 17.2103 100.629 17.384L100.426 15.549C101.043 14.9674 101.674 14.5342 102.322 14.2422C102.969 13.9526 103.593 13.8066 104.199 13.8066H104.717V13.809Z" fill="#006363"/>
<path d="M112.388 14.0678V16.1623H105.066V14.1605L106.842 14.0678H112.388ZM110.002 11.584V20.1081C110.002 20.3792 110.069 20.5785 110.206 20.7013C110.342 20.8241 110.569 20.8866 110.89 20.8866H111.963L112.333 23.0924C112.086 23.192 111.787 23.2708 111.436 23.3333C111.084 23.3959 110.731 23.4422 110.372 23.4724C110.014 23.5025 109.707 23.5187 109.448 23.5187C108.585 23.5187 107.903 23.2939 107.404 22.8421C106.904 22.3903 106.655 21.7647 106.655 20.9608V11.5863H110L110.002 11.584Z" fill="#006363"/>
<path d="M118.284 9.97315C118.198 9.84571 118.129 9.77157 118.097 9.68584C117.903 9.18306 117.711 8.67796 117.53 8.16823C117.313 7.55655 116.915 7.13949 116.298 6.92401C115.789 6.74561 115.285 6.55562 114.784 6.35867C114.701 6.32624 114.638 6.23356 114.566 6.16868C114.638 6.10381 114.698 6.01345 114.781 5.98101C115.318 5.77016 115.861 5.57554 116.4 5.36933C116.925 5.17007 117.288 4.8063 117.484 4.27804C117.678 3.7544 117.868 3.22845 118.074 2.70945C118.113 2.60982 118.212 2.53336 118.286 2.44531C118.351 2.52872 118.441 2.60287 118.481 2.69786C118.686 3.22613 118.878 3.76367 119.079 4.29425C119.276 4.81094 119.637 5.16775 120.147 5.36701C120.684 5.57554 121.227 5.77016 121.766 5.98101C121.854 6.01576 121.921 6.09686 121.999 6.1571C121.921 6.22661 121.851 6.32392 121.759 6.36099C121.257 6.55793 120.753 6.75024 120.245 6.92865C119.627 7.14413 119.237 7.56813 119.019 8.17981C118.839 8.68955 118.649 9.19464 118.457 9.69743C118.427 9.77852 118.365 9.84571 118.284 9.97315Z" fill="#006363"/>
<path d="M113.183 0C113.257 0.145969 113.305 0.222429 113.335 0.30584C113.467 0.651069 113.594 0.996297 113.721 1.34384C113.872 1.74931 114.142 2.03198 114.551 2.18259C114.914 2.31465 115.28 2.44904 115.64 2.59037C115.707 2.61818 115.756 2.69464 115.811 2.74793C115.754 2.79195 115.705 2.84987 115.64 2.87536C115.289 3.01206 114.935 3.14644 114.577 3.27388C114.144 3.4268 113.862 3.71874 113.71 4.14738C113.594 4.46712 113.479 4.78918 113.358 5.1066C113.319 5.20623 113.259 5.29891 113.176 5.45878C113.097 5.31513 113.042 5.23403 113.007 5.14599C112.878 4.81003 112.75 4.47407 112.63 4.13579C112.482 3.7141 112.196 3.43375 111.782 3.27851C111.428 3.14644 111.072 3.02133 110.718 2.88231C110.649 2.85451 110.596 2.785 110.533 2.73402C110.593 2.68305 110.646 2.61354 110.718 2.58574C111.07 2.44672 111.423 2.31465 111.779 2.18722C112.177 2.04588 112.454 1.77943 112.607 1.38555C112.741 1.03105 112.868 0.676555 113.005 0.322059C113.039 0.234014 113.095 0.15292 113.176 0.00463394L113.183 0Z" fill="#006363"/>
<path d="M112.213 11.1011C112.125 10.8695 112.014 10.6424 111.951 10.4037C111.815 9.89864 111.508 9.58817 111.006 9.44683C110.763 9.37964 110.534 9.27306 110.213 9.15026C110.365 9.07148 110.439 9.02514 110.518 8.99502C111.829 8.50151 111.649 8.64516 112.125 7.38936C112.155 7.3129 112.192 7.24108 112.25 7.11133C112.312 7.21559 112.356 7.2712 112.379 7.33376C112.472 7.5724 112.557 7.81105 112.645 8.05202C112.765 8.38334 112.98 8.61504 113.316 8.73552C113.623 8.84442 113.924 8.96722 114.229 9.08307C114.229 9.11087 114.229 9.13868 114.231 9.16416C114.081 9.2244 113.935 9.31013 113.778 9.34489C113.05 9.50244 112.636 9.95888 112.472 10.6725C112.439 10.8162 112.372 10.9505 112.321 11.0896C112.287 11.0942 112.25 11.0965 112.215 11.1011H112.213Z" fill="#006363"/>
</svg>
